<!DOCTYPE svg PUBLIC "-//W3C//DTD SVG 1.1//EN" "http://www.w3.org/Graphics/SVG/1.1/DTD/svg11.dtd">


<svg width="99px" height="99px" viewBox="-51.2 -51.2 614.40 614.40" xmlns="http://www.w3.org/2000/svg" fill="#000000" stroke="#000000" stroke-width="51.2">

<g id="bg" stroke-width="0" transform="translate(28.159999999999997,28.159999999999997), scale(0.89)">

<rect x="-51.2" y="-51.2" width="614.40" height="614.40" rx="0" fill="#f5f5f5" strokewidth="0"/>

</g>

<g id="border" stroke-linecap="round" stroke-linejoin="round" stroke="#c83737" stroke-width="8.192"/>

<g id="icon">

<path fill="#000000" d="M19.51 19.51V492.3H492.3V19.51H19.51zm18 18H171.1V171.1H37.51V37.51zm151.59 0h133.6V171.1H189.1V37.51zm151.6 0h133.6V171.1H340.7V37.51zm-84.8 9.94a56.85 56.85 0 0 0-56.8 56.85 56.85 56.85 0 0 0 56.8 56.9 56.85 56.85 0 0 0 56.9-56.9 56.85 56.85 0 0 0-56.9-56.85zM37.51 189.1H171.1v133.6H37.51V189.1zm151.59 0h133.6v133.6H189.1V189.1zm151.6 0h133.6v133.6H340.7V189.1zm66.9 10a56.85 56.85 0 0 0-56.8 56.8 56.85 56.85 0 0 0 56.8 56.9 56.85 56.85 0 0 0 56.8-56.9 56.85 56.85 0 0 0-56.8-56.8zM37.51 340.7H171.1v133.6H37.51V340.7zm151.59 0h133.6v133.6H189.1V340.7zm151.6 0h133.6v133.6H340.7V340.7zm-236.4 10.1a56.85 56.85 0 0 0-56.85 56.8 56.85 56.85 0 0 0 56.85 56.8 56.85 56.85 0 0 0 56.9-56.8 56.85 56.85 0 0 0-56.9-56.8zm151.6 0a56.85 56.85 0 0 0-56.8 56.8 56.85 56.85 0 0 0 56.8 56.8 56.85 56.85 0 0 0 56.9-56.8 56.85 56.85 0 0 0-56.9-56.8zm151.7 0a56.85 56.85 0 0 0-56.8 56.8 56.85 56.85 0 0 0 56.8 56.8 56.85 56.85 0 0 0 56.8-56.8 56.85 56.85 0 0 0-56.8-56.8z"/>

</g>

</svg>